# Blender v2.79 (sub 0) OBJ File: ''
# www.blender.org
mtllib particle.mtl
o Cube_Cube.001
v 0.954980 1.367670 1.661400
v 1.229303 1.549079 2.761748
v 0.898371 1.197789 2.851346
v 0.911772 1.636632 2.530579
v 1.882425 1.525802 2.658583
v 2.122880 1.565631 2.386632
v 2.106134 1.287924 2.658951
v 1.870213 1.740379 1.495789
v 2.189912 1.302057 1.482859
v 2.156940 1.673013 1.732160
v 1.216620 1.682073 1.625440
v 0.959775 1.657084 1.895508
v 1.010311 0.691415 2.718128
v 1.013508 0.520888 2.429354
v 1.288787 0.507296 2.699797
v 1.987646 0.553811 2.368032
v 1.794677 0.566294 2.625906
v 2.024741 0.753766 2.644508
v 1.962353 0.568613 1.891198
v 2.014758 0.762236 1.661597
v 1.698950 0.553956 1.706667
v 0.989058 0.542203 1.914450
v 1.157501 0.550045 1.721535
v 0.971507 0.727701 1.710163
vt 0.000000 0.000000
vt 1.000000 0.000000
vt 1.000000 1.000000
vt 0.000000 0.000000
vt 1.000000 0.000000
vt 1.000000 1.000000
vt 0.000000 0.000000
vt 1.000000 0.000000
vt 1.000000 1.000000
vt 0.500000 1.000000
vt 0.853553 0.853553
vt 1.000000 0.500000
vt 0.853553 0.146447
vt 0.500000 0.000000
vt 0.146447 0.146447
vt 0.000000 0.500000
vt 0.146447 0.853553
vt 0.000000 0.000000
vt 1.000000 0.000000
vt 1.000000 1.000000
vt 0.576219 0.955995
vt 0.000000 0.853678
vt 0.115606 0.778070
vt 0.436641 0.963419
vt 0.933013 0.750000
vt 0.933013 0.250000
vt 0.500000 0.000000
vt 0.066987 0.250000
vt 0.066987 0.677370
vt 0.179856 0.815165
vt 0.622046 0.929536
vt 0.765689 1.000000
vt 0.158499 0.802834
vt 0.398540 0.941422
vt 0.933013 0.750000
vt 0.933013 0.250000
vt 0.500000 0.000000
vt 0.066987 0.250000
vt 0.066987 0.661990
vt 0.633528 0.922908
vt 1.000000 0.246654
vt 0.162678 0.805247
vt 0.393196 0.938336
vt 0.933013 0.750000
vt 0.933013 0.250000
vt 0.500000 0.000000
vt 0.066987 0.250000
vt 0.066987 0.609073
vt 0.562900 0.963685
vt 0.190216 0.000000
vt 0.417634 0.952446
vt 0.933013 0.750000
vt 0.933013 0.250000
vt 0.500000 0.000000
vt 0.066987 0.250000
vt 0.066987 0.595815
vt 0.000000 0.260660
vt 0.779011 0.000000
vt 1.000000 0.788663
vt 0.112281 1.000000
vn -0.3859 0.5520 0.7391
vn 0.5840 0.5501 0.5969
vn 0.6239 0.4734 -0.6219
vn 0.0355 0.9892 0.1421
vn -0.6572 0.4805 -0.5806
vn -0.4737 -0.7606 0.4439
vn -0.9975 -0.0666 -0.0223
vn 0.5448 -0.7125 0.4422
vn 0.1311 -0.0581 0.9897
vn 0.4127 -0.7406 -0.5303
vn 0.9874 -0.1547 0.0329
vn -0.5712 -0.6315 -0.5244
vn -0.1105 -0.1304 -0.9853
vn 0.0351 -0.9991 -0.0227
usemtl None
s off
f 2/1/1 4/2/1 3/3/1
f 6/4/2 5/5/2 7/6/2
f 8/7/3 10/8/3 9/9/3
f 10/10/4 8/11/4 11/12/4 12/13/4 4/14/4 2/15/4 5/16/4 6/17/4
f 11/18/5 1/19/5 12/20/5
f 13/21/6 14/22/6 15/23/6
f 14/24/7 13/21/7 3/25/7 4/26/7 12/27/7 1/28/7 24/29/7 22/30/7
f 18/31/8 17/32/8 16/33/8
f 17/34/9 18/31/9 7/35/9 5/36/9 2/37/9 3/38/9 13/39/9 15/23/9
f 20/40/10 19/41/10 21/42/10
f 19/43/11 20/40/11 9/44/11 10/45/11 6/46/11 7/47/11 18/48/11 16/33/11
f 24/49/12 23/50/12 22/30/12
f 23/51/13 24/49/13 1/52/13 11/53/13 8/54/13 9/55/13 20/56/13 21/42/13
f 22/57/14 23/50/14 21/58/14 19/41/14 16/59/14 17/32/14 15/60/14 14/22/14
